<svg xmlns="http://www.w3.org/2000/svg" viewBox="0 0 900 550"><path fill="#dce5d4" d="M0 0h900v550H0z"/><circle cx="680" cy="125" r="65" fill="#f4e6b7"/><path fill="#a2b898" d="M0 355Q160 80 370 270T900 250v300H0"/><path fill="#6e9177" d="M0 400q310-200 530 10t370-25v165H0"/><g fill="#2b5945"><path d="M90 390l100-270 100 270zm180 20l120-310 120 310zm320 20l95-260 95 260z"/></g><path d="M305 550q80-70 20-115t90-90" fill="none" stroke="#ddcba5" stroke-width="35"/><path fill="#51765e" d="M0 510q140-55 290 10l-30 30H0m480 40v-85q240-45 420 0v45z"/></svg>
